<?xml version="1.0" encoding="UTF-8"?>
<svg xmlns="http://www.w3.org/2000/svg" xmlns:xlink="http://www.w3.org/1999/xlink" width="24pt" height="23pt" viewBox="0 0 24 23" version="1.1">
<g id="surface1">
<path style="fill:none;stroke-width:2;stroke-linecap:square;stroke-linejoin:miter;stroke:rgb(0%,0%,0%);stroke-opacity:1;stroke-miterlimit:10;" d="M 320.56 313.545 L 320.56 313.545 " transform="matrix(0.0374345,0,0,0.0366757,0,0.000502074)"/>
<path style="fill:none;stroke-width:2;stroke-linecap:round;stroke-linejoin:miter;stroke:rgb(0%,0%,0%);stroke-opacity:1;stroke-miterlimit:10;" d="M 320.56 313.545 L 17.530625 313.545 " transform="matrix(0.0374345,0,0,0.0366757,0,0.000502074)"/>
<path style="fill:none;stroke-width:2;stroke-linecap:square;stroke-linejoin:miter;stroke:rgb(0%,0%,0%);stroke-opacity:1;stroke-miterlimit:10;" d="M 320.56 313.545 L 320.56 313.545 " transform="matrix(0.0374345,0,0,0.0366757,0,0.000502074)"/>
<path style="fill:none;stroke-width:2;stroke-linecap:square;stroke-linejoin:miter;stroke:rgb(0%,0%,0%);stroke-opacity:1;stroke-miterlimit:10;" d="M 320.56 313.545 L 338.821068 312.586431 " transform="matrix(0.0374345,0,0,0.0366757,0,0.000502074)"/>
<path style="fill:none;stroke-width:2;stroke-linecap:square;stroke-linejoin:miter;stroke:rgb(0%,0%,0%);stroke-opacity:1;stroke-miterlimit:10;" d="M 339.55151 312.586431 C 339.134115 303.639783 332.56013 296.290751 323.794818 294.799644 C 315.029505 293.308536 306.368542 298.101382 302.925026 306.302476 " transform="matrix(0.0374345,0,0,0.0366757,0,0.000502074)"/>
<path style="fill:none;stroke-width:2;stroke-linecap:square;stroke-linejoin:miter;stroke:rgb(0%,0%,0%);stroke-opacity:1;stroke-miterlimit:10;" d="M 302.925026 306.408984 L 93.601016 219.498695 " transform="matrix(0.0374345,0,0,0.0366757,0,0.000502074)"/>
<path style="fill:none;stroke-width:2;stroke-linecap:square;stroke-linejoin:miter;stroke:rgb(0%,0%,0%);stroke-opacity:1;stroke-miterlimit:10;" d="M 93.601016 219.498695 C 86.19224 237.285482 80.974792 255.711315 77.948672 274.563179 " transform="matrix(0.0374345,0,0,0.0366757,0,0.000502074)"/>
<path style="fill:none;stroke-width:2;stroke-linecap:round;stroke-linejoin:miter;stroke:rgb(0%,0%,0%);stroke-opacity:1;stroke-miterlimit:10;" d="M 77.531276 274.563179 L 21.600234 266.575101 " transform="matrix(0.0374345,0,0,0.0366757,0,0.000502074)"/>
<path style="fill:none;stroke-width:2;stroke-linecap:square;stroke-linejoin:miter;stroke:rgb(0%,0%,0%);stroke-opacity:1;stroke-miterlimit:10;" d="M 101.844583 201.711908 C 98.818464 207.569831 96.105391 213.534263 93.601016 219.498695 " transform="matrix(0.0374345,0,0,0.0366757,0,0.000502074)"/>
<path style="fill:none;stroke-width:2;stroke-linecap:square;stroke-linejoin:miter;stroke:rgb(0%,0%,0%);stroke-opacity:1;stroke-miterlimit:10;" d="M 101.531536 201.498892 L 84.522656 193.510814 " transform="matrix(0.0374345,0,0,0.0366757,0,0.000502074)"/>
<path style="fill:none;stroke-width:2;stroke-linecap:square;stroke-linejoin:miter;stroke:rgb(0%,0%,0%);stroke-opacity:1;stroke-miterlimit:10;" d="M 84.522656 193.510814 C 81.392187 199.794769 78.470417 206.185231 75.757344 212.682201 " transform="matrix(0.0374345,0,0,0.0366757,0,0.000502074)"/>
<path style="fill:none;stroke-width:2;stroke-linecap:square;stroke-linejoin:miter;stroke:rgb(0%,0%,0%);stroke-opacity:1;stroke-miterlimit:10;" d="M 75.548646 212.575694 L 58.539766 204.587616 " transform="matrix(0.0374345,0,0,0.0366757,0,0.000502074)"/>
<path style="fill:none;stroke-width:2;stroke-linecap:square;stroke-linejoin:miter;stroke:rgb(0%,0%,0%);stroke-opacity:1;stroke-miterlimit:10;" d="M 58.539766 204.587616 C 55.722344 211.510617 53.11362 218.540125 50.713594 225.569634 " transform="matrix(0.0374345,0,0,0.0366757,0,0.000502074)"/>
<path style="fill:none;stroke-width:2;stroke-linecap:round;stroke-linejoin:miter;stroke:rgb(0%,0%,0%);stroke-opacity:1;stroke-miterlimit:10;" d="M 50.609245 225.569634 L 32.556875 219.498695 " transform="matrix(0.0374345,0,0,0.0366757,0,0.000502074)"/>
<path style="fill:none;stroke-width:2;stroke-linecap:square;stroke-linejoin:miter;stroke:rgb(0%,0%,0%);stroke-opacity:1;stroke-miterlimit:10;" d="M 67.722474 184.670674 C 64.487656 191.167645 61.357187 197.771122 58.539766 204.587616 " transform="matrix(0.0374345,0,0,0.0366757,0,0.000502074)"/>
<path style="fill:none;stroke-width:2;stroke-linecap:round;stroke-linejoin:miter;stroke:rgb(0%,0%,0%);stroke-opacity:1;stroke-miterlimit:10;" d="M 67.513776 184.564167 L 50.609245 175.511012 " transform="matrix(0.0374345,0,0,0.0366757,0,0.000502074)"/>
<path style="fill:none;stroke-width:2;stroke-linecap:square;stroke-linejoin:miter;stroke:rgb(0%,0%,0%);stroke-opacity:1;stroke-miterlimit:10;" d="M 106.644635 157.617717 C 98.296719 169.014042 90.992292 180.942905 84.522656 193.510814 " transform="matrix(0.0374345,0,0,0.0366757,0,0.000502074)"/>
<path style="fill:none;stroke-width:2;stroke-linecap:round;stroke-linejoin:miter;stroke:rgb(0%,0%,0%);stroke-opacity:1;stroke-miterlimit:10;" d="M 106.540286 157.511209 L 75.548646 135.570622 " transform="matrix(0.0374345,0,0,0.0366757,0,0.000502074)"/>
<path style="fill:none;stroke-width:2;stroke-linecap:square;stroke-linejoin:miter;stroke:rgb(0%,0%,0%);stroke-opacity:1;stroke-miterlimit:10;" d="M 339.134115 317.698801 C 339.55151 315.994677 339.655859 314.290554 339.55151 312.586431 " transform="matrix(0.0374345,0,0,0.0366757,0,0.000502074)"/>
<path style="fill:none;stroke-width:2;stroke-linecap:square;stroke-linejoin:miter;stroke:rgb(0%,0%,0%);stroke-opacity:1;stroke-miterlimit:10;" d="M 339.238464 317.805308 L 357.395182 322.811171 " transform="matrix(0.0374345,0,0,0.0366757,0,0.000502074)"/>
<path style="fill:none;stroke-width:2;stroke-linecap:square;stroke-linejoin:miter;stroke:rgb(0%,0%,0%);stroke-opacity:1;stroke-miterlimit:10;" d="M 357.60388 322.598155 C 357.812578 321.639586 358.021276 320.574509 358.125625 319.615939 " transform="matrix(0.0374345,0,0,0.0366757,0,0.000502074)"/>
<path style="fill:none;stroke-width:2;stroke-linecap:square;stroke-linejoin:miter;stroke:rgb(0%,0%,0%);stroke-opacity:1;stroke-miterlimit:10;" d="M 358.229974 319.509432 L 376.595391 322.598155 " transform="matrix(0.0374345,0,0,0.0366757,0,0.000502074)"/>
<path style="fill:none;stroke-width:2;stroke-linecap:square;stroke-linejoin:miter;stroke:rgb(0%,0%,0%);stroke-opacity:1;stroke-miterlimit:10;" d="M 376.595391 322.598155 C 377.534531 316.633724 377.534531 310.562784 376.595391 304.598353 " transform="matrix(0.0374345,0,0,0.0366757,0,0.000502074)"/>
<path style="fill:none;stroke-width:2;stroke-linecap:square;stroke-linejoin:miter;stroke:rgb(0%,0%,0%);stroke-opacity:1;stroke-miterlimit:10;" d="M 376.595391 304.598353 L 395.586901 301.509629 " transform="matrix(0.0374345,0,0,0.0366757,0,0.000502074)"/>
<path style="fill:none;stroke-width:2;stroke-linecap:square;stroke-linejoin:miter;stroke:rgb(0%,0%,0%);stroke-opacity:1;stroke-miterlimit:10;" d="M 395.586901 301.509629 C 394.64776 295.651705 392.978177 290.006797 390.6825 284.468396 " transform="matrix(0.0374345,0,0,0.0366757,0,0.000502074)"/>
<path style="fill:none;stroke-width:2;stroke-linecap:square;stroke-linejoin:miter;stroke:rgb(0%,0%,0%);stroke-opacity:1;stroke-miterlimit:10;" d="M 390.578151 284.574904 L 407.587031 277.545395 " transform="matrix(0.0374345,0,0,0.0366757,0,0.000502074)"/>
<path style="fill:none;stroke-width:2;stroke-linecap:square;stroke-linejoin:miter;stroke:rgb(0%,0%,0%);stroke-opacity:1;stroke-miterlimit:10;" d="M 407.587031 277.545395 C 396.526042 250.918468 373.882318 230.788512 346.125495 222.906941 C 318.368672 215.131879 288.52487 220.457264 265.150703 237.391989 " transform="matrix(0.0374345,0,0,0.0366757,0,0.000502074)"/>
<path style="fill:none;stroke-width:2;stroke-linecap:square;stroke-linejoin:miter;stroke:rgb(0%,0%,0%);stroke-opacity:1;stroke-miterlimit:10;" d="M 264.524609 236.539928 L 164.558307 99.571017 " transform="matrix(0.0374345,0,0,0.0366757,0,0.000502074)"/>
<path style="fill:none;stroke-width:2;stroke-linecap:square;stroke-linejoin:miter;stroke:rgb(0%,0%,0%);stroke-opacity:1;stroke-miterlimit:10;" d="M 164.558307 99.571017 C 153.497318 107.665602 143.062422 116.61225 133.25362 126.304451 " transform="matrix(0.0374345,0,0,0.0366757,0,0.000502074)"/>
<path style="fill:none;stroke-width:2;stroke-linecap:round;stroke-linejoin:miter;stroke:rgb(0%,0%,0%);stroke-opacity:1;stroke-miterlimit:10;" d="M 133.149271 126.197943 L 106.22724 99.784032 " transform="matrix(0.0374345,0,0,0.0366757,0,0.000502074)"/>
<path style="fill:none;stroke-width:2;stroke-linecap:square;stroke-linejoin:miter;stroke:rgb(0%,0%,0%);stroke-opacity:1;stroke-miterlimit:10;" d="M 181.775885 87.961676 C 175.932344 91.582939 170.193151 95.417216 164.558307 99.571017 " transform="matrix(0.0374345,0,0,0.0366757,0,0.000502074)"/>
<path style="fill:none;stroke-width:2;stroke-linecap:square;stroke-linejoin:miter;stroke:rgb(0%,0%,0%);stroke-opacity:1;stroke-miterlimit:10;" d="M 181.567187 87.535646 L 172.593177 71.55949 " transform="matrix(0.0374345,0,0,0.0366757,0,0.000502074)"/>
<path style="fill:none;stroke-width:2;stroke-linecap:square;stroke-linejoin:miter;stroke:rgb(0%,0%,0%);stroke-opacity:1;stroke-miterlimit:10;" d="M 172.593177 71.55949 C 166.123542 75.500275 159.966953 79.654075 153.914714 84.020891 " transform="matrix(0.0374345,0,0,0.0366757,0,0.000502074)"/>
<path style="fill:none;stroke-width:2;stroke-linecap:round;stroke-linejoin:miter;stroke:rgb(0%,0%,0%);stroke-opacity:1;stroke-miterlimit:10;" d="M 153.601667 83.59486 L 142.540677 68.577274 " transform="matrix(0.0374345,0,0,0.0366757,0,0.000502074)"/>
<path style="fill:none;stroke-width:2;stroke-linecap:square;stroke-linejoin:miter;stroke:rgb(0%,0%,0%);stroke-opacity:1;stroke-miterlimit:10;" d="M 191.689036 60.802211 C 185.219401 64.10395 178.854115 67.725212 172.593177 71.55949 " transform="matrix(0.0374345,0,0,0.0366757,0,0.000502074)"/>
<path style="fill:none;stroke-width:2;stroke-linecap:round;stroke-linejoin:miter;stroke:rgb(0%,0%,0%);stroke-opacity:1;stroke-miterlimit:10;" d="M 191.584687 60.589196 L 182.610677 43.547963 " transform="matrix(0.0374345,0,0,0.0366757,0,0.000502074)"/>
<path style="fill:none;stroke-width:2;stroke-linecap:square;stroke-linejoin:miter;stroke:rgb(0%,0%,0%);stroke-opacity:1;stroke-miterlimit:10;" d="M 413.534922 298.740429 C 412.387083 291.497905 410.404453 284.361888 407.587031 277.545395 " transform="matrix(0.0374345,0,0,0.0366757,0,0.000502074)"/>
<path style="fill:none;stroke-width:2;stroke-linecap:square;stroke-linejoin:miter;stroke:rgb(0%,0%,0%);stroke-opacity:1;stroke-miterlimit:10;" d="M 414.578411 298.527413 L 432.526432 295.545198 " transform="matrix(0.0374345,0,0,0.0366757,0,0.000502074)"/>
<path style="fill:none;stroke-width:2;stroke-linecap:square;stroke-linejoin:miter;stroke:rgb(0%,0%,0%);stroke-opacity:1;stroke-miterlimit:10;" d="M 432.526432 295.545198 C 431.587292 289.793781 430.230755 284.148873 428.456823 278.610472 " transform="matrix(0.0374345,0,0,0.0366757,0,0.000502074)"/>
<path style="fill:none;stroke-width:2;stroke-linecap:square;stroke-linejoin:miter;stroke:rgb(0%,0%,0%);stroke-opacity:1;stroke-miterlimit:10;" d="M 428.561172 278.503964 L 446.509193 272.539533 " transform="matrix(0.0374345,0,0,0.0366757,0,0.000502074)"/>
<path style="fill:none;stroke-width:2;stroke-linecap:square;stroke-linejoin:miter;stroke:rgb(0%,0%,0%);stroke-opacity:1;stroke-miterlimit:10;" d="M 446.509193 272.539533 C 445.465703 269.131286 444.213516 265.72304 442.856979 262.421301 " transform="matrix(0.0374345,0,0,0.0366757,0,0.000502074)"/>
<path style="fill:none;stroke-width:2;stroke-linecap:square;stroke-linejoin:miter;stroke:rgb(0%,0%,0%);stroke-opacity:1;stroke-miterlimit:10;" d="M 442.75263 262.314793 L 460.283255 255.285284 " transform="matrix(0.0374345,0,0,0.0366757,0,0.000502074)"/>
<path style="fill:none;stroke-width:2;stroke-linecap:square;stroke-linejoin:miter;stroke:rgb(0%,0%,0%);stroke-opacity:1;stroke-miterlimit:10;" d="M 460.596302 255.4983 C 438.78737 202.99 389.325964 166.990395 332.56013 162.517071 " transform="matrix(0.0374345,0,0,0.0366757,0,0.000502074)"/>
<path style="fill:none;stroke-width:2;stroke-linecap:square;stroke-linejoin:miter;stroke:rgb(0%,0%,0%);stroke-opacity:1;stroke-miterlimit:10;" d="M 332.56013 162.517071 L 338.508021 86.683584 " transform="matrix(0.0374345,0,0,0.0366757,0,0.000502074)"/>
<path style="fill:none;stroke-width:2;stroke-linecap:square;stroke-linejoin:miter;stroke:rgb(0%,0%,0%);stroke-opacity:1;stroke-miterlimit:10;" d="M 338.508021 86.577076 C 314.716458 84.659938 290.716198 86.577076 267.44638 92.115477 " transform="matrix(0.0374345,0,0,0.0366757,0,0.000502074)"/>
<path style="fill:none;stroke-width:2;stroke-linecap:square;stroke-linejoin:miter;stroke:rgb(0%,0%,0%);stroke-opacity:1;stroke-miterlimit:10;" d="M 267.44638 92.008969 L 254.40276 37.583531 " transform="matrix(0.0374345,0,0,0.0366757,0,0.000502074)"/>
<path style="fill:none;stroke-width:2;stroke-linecap:square;stroke-linejoin:miter;stroke:rgb(0%,0%,0%);stroke-opacity:1;stroke-miterlimit:10;" d="M 254.611458 37.583531 C 247.202682 39.287654 239.898255 41.417808 232.593828 43.760978 " transform="matrix(0.0374345,0,0,0.0366757,0,0.000502074)"/>
<path style="fill:none;stroke-width:2;stroke-linecap:round;stroke-linejoin:miter;stroke:rgb(0%,0%,0%);stroke-opacity:1;stroke-miterlimit:10;" d="M 232.593828 43.547963 L 226.541589 25.54816 " transform="matrix(0.0374345,0,0,0.0366757,0,0.000502074)"/>
<path style="fill:none;stroke-width:2;stroke-linecap:square;stroke-linejoin:miter;stroke:rgb(0%,0%,0%);stroke-opacity:1;stroke-miterlimit:10;" d="M 276.629089 33.216715 C 269.220312 34.3883 261.915885 35.7729 254.611458 37.583531 " transform="matrix(0.0374345,0,0,0.0366757,0,0.000502074)"/>
<path style="fill:none;stroke-width:2;stroke-linecap:round;stroke-linejoin:miter;stroke:rgb(0%,0%,0%);stroke-opacity:1;stroke-miterlimit:10;" d="M 276.52474 32.577669 L 273.602969 14.577866 " transform="matrix(0.0374345,0,0,0.0366757,0,0.000502074)"/>
<path style="fill:none;stroke-width:2;stroke-linecap:square;stroke-linejoin:miter;stroke:rgb(0%,0%,0%);stroke-opacity:1;stroke-miterlimit:10;" d="M 373.67362 92.115477 C 362.090885 89.346277 350.403802 87.535646 338.508021 86.577076 " transform="matrix(0.0374345,0,0,0.0366757,0,0.000502074)"/>
<path style="fill:none;stroke-width:2;stroke-linecap:square;stroke-linejoin:miter;stroke:rgb(0%,0%,0%);stroke-opacity:1;stroke-miterlimit:10;" d="M 373.67362 92.008969 L 377.63888 74.648213 " transform="matrix(0.0374345,0,0,0.0366757,0,0.000502074)"/>
<path style="fill:none;stroke-width:2;stroke-linecap:square;stroke-linejoin:miter;stroke:rgb(0%,0%,0%);stroke-opacity:1;stroke-miterlimit:10;" d="M 377.534531 74.541705 C 371.586641 73.157105 365.534401 71.879013 359.482161 70.920443 " transform="matrix(0.0374345,0,0,0.0366757,0,0.000502074)"/>
<path style="fill:none;stroke-width:2;stroke-linecap:square;stroke-linejoin:miter;stroke:rgb(0%,0%,0%);stroke-opacity:1;stroke-miterlimit:10;" d="M 359.58651 70.494413 L 361.569141 51.536041 " transform="matrix(0.0374345,0,0,0.0366757,0,0.000502074)"/>
<path style="fill:none;stroke-width:2;stroke-linecap:square;stroke-linejoin:miter;stroke:rgb(0%,0%,0%);stroke-opacity:1;stroke-miterlimit:10;" d="M 361.569141 51.536041 C 354.890807 50.470964 348.316823 49.72541 341.63849 49.192871 " transform="matrix(0.0374345,0,0,0.0366757,0,0.000502074)"/>
<path style="fill:none;stroke-width:2;stroke-linecap:square;stroke-linejoin:miter;stroke:rgb(0%,0%,0%);stroke-opacity:1;stroke-miterlimit:10;" d="M 341.534141 48.979856 L 342.57763 30.66053 " transform="matrix(0.0374345,0,0,0.0366757,0,0.000502074)"/>
<path style="fill:none;stroke-width:2;stroke-linecap:square;stroke-linejoin:miter;stroke:rgb(0%,0%,0%);stroke-opacity:1;stroke-miterlimit:10;" d="M 342.57763 30.554022 C 335.273203 30.021484 327.864427 29.701961 320.56 29.701961 " transform="matrix(0.0374345,0,0,0.0366757,0,0.000502074)"/>
<path style="fill:none;stroke-width:2;stroke-linecap:round;stroke-linejoin:miter;stroke:rgb(0%,0%,0%);stroke-opacity:1;stroke-miterlimit:10;" d="M 320.56 29.595453 L 320.56 10.530573 " transform="matrix(0.0374345,0,0,0.0366757,0,0.000502074)"/>
<path style="fill:none;stroke-width:2;stroke-linecap:square;stroke-linejoin:miter;stroke:rgb(0%,0%,0%);stroke-opacity:1;stroke-miterlimit:10;" d="M 364.490911 33.110207 C 357.186484 31.938623 349.882057 31.086561 342.57763 30.554022 " transform="matrix(0.0374345,0,0,0.0366757,0,0.000502074)"/>
<path style="fill:none;stroke-width:2;stroke-linecap:round;stroke-linejoin:miter;stroke:rgb(0%,0%,0%);stroke-opacity:1;stroke-miterlimit:10;" d="M 364.59526 32.577669 L 367.517031 14.577866 " transform="matrix(0.0374345,0,0,0.0366757,0,0.000502074)"/>
<path style="fill:none;stroke-width:2;stroke-linecap:square;stroke-linejoin:miter;stroke:rgb(0%,0%,0%);stroke-opacity:1;stroke-miterlimit:10;" d="M 402.578281 61.33475 C 389.221615 56.967934 375.447552 53.772703 361.569141 51.536041 " transform="matrix(0.0374345,0,0,0.0366757,0,0.000502074)"/>
<path style="fill:none;stroke-width:2;stroke-linecap:round;stroke-linejoin:miter;stroke:rgb(0%,0%,0%);stroke-opacity:1;stroke-miterlimit:10;" d="M 402.68263 61.33475 L 414.578411 25.54816 " transform="matrix(0.0374345,0,0,0.0366757,0,0.000502074)"/>
<path style="fill:none;stroke-width:2;stroke-linecap:square;stroke-linejoin:miter;stroke:rgb(0%,0%,0%);stroke-opacity:1;stroke-miterlimit:10;" d="M 432.422083 94.77817 C 414.995807 85.831522 396.630391 79.121537 377.534531 74.541705 " transform="matrix(0.0374345,0,0,0.0366757,0,0.000502074)"/>
<path style="fill:none;stroke-width:2;stroke-linecap:round;stroke-linejoin:miter;stroke:rgb(0%,0%,0%);stroke-opacity:1;stroke-miterlimit:10;" d="M 432.526432 94.565154 L 458.509323 43.547963 " transform="matrix(0.0374345,0,0,0.0366757,0,0.000502074)"/>
<path style="fill:none;stroke-width:2;stroke-linecap:square;stroke-linejoin:miter;stroke:rgb(0%,0%,0%);stroke-opacity:1;stroke-miterlimit:10;" d="M 471.657292 325.580371 C 473.535573 301.616137 469.77901 277.651903 460.596302 255.4983 " transform="matrix(0.0374345,0,0,0.0366757,0,0.000502074)"/>
<path style="fill:none;stroke-width:2;stroke-linecap:square;stroke-linejoin:miter;stroke:rgb(0%,0%,0%);stroke-opacity:1;stroke-miterlimit:10;" d="M 471.657292 325.580371 L 489.918359 326.645448 " transform="matrix(0.0374345,0,0,0.0366757,0,0.000502074)"/>
<path style="fill:none;stroke-width:2;stroke-linecap:square;stroke-linejoin:miter;stroke:rgb(0%,0%,0%);stroke-opacity:1;stroke-miterlimit:10;" d="M 490.544453 326.53894 C 491.170547 317.911816 491.170547 309.178184 490.544453 300.55106 " transform="matrix(0.0374345,0,0,0.0366757,0,0.000502074)"/>
<path style="fill:none;stroke-width:2;stroke-linecap:square;stroke-linejoin:miter;stroke:rgb(0%,0%,0%);stroke-opacity:1;stroke-miterlimit:10;" d="M 490.544453 300.55106 L 509.535964 298.527413 " transform="matrix(0.0374345,0,0,0.0366757,0,0.000502074)"/>
<path style="fill:none;stroke-width:2;stroke-linecap:square;stroke-linejoin:miter;stroke:rgb(0%,0%,0%);stroke-opacity:1;stroke-miterlimit:10;" d="M 509.535964 298.527413 C 505.988099 253.581161 486.474844 211.404109 454.648411 179.451797 " transform="matrix(0.0374345,0,0,0.0366757,0,0.000502074)"/>
<path style="fill:none;stroke-width:2;stroke-linecap:square;stroke-linejoin:miter;stroke:rgb(0%,0%,0%);stroke-opacity:1;stroke-miterlimit:10;" d="M 454.648411 179.238781 L 506.822891 127.156513 " transform="matrix(0.0374345,0,0,0.0366757,0,0.000502074)"/>
<path style="fill:none;stroke-width:2;stroke-linecap:square;stroke-linejoin:miter;stroke:rgb(0%,0%,0%);stroke-opacity:1;stroke-miterlimit:10;" d="M 507.553333 126.517466 C 502.544583 121.511604 497.431484 116.718757 492.005339 112.245434 " transform="matrix(0.0374345,0,0,0.0366757,0,0.000502074)"/>
<path style="fill:none;stroke-width:2;stroke-linecap:square;stroke-linejoin:miter;stroke:rgb(0%,0%,0%);stroke-opacity:1;stroke-miterlimit:10;" d="M 492.527083 111.49988 L 504.527214 97.54737 " transform="matrix(0.0374345,0,0,0.0366757,0,0.000502074)"/>
<path style="fill:none;stroke-width:2;stroke-linecap:square;stroke-linejoin:miter;stroke:rgb(0%,0%,0%);stroke-opacity:1;stroke-miterlimit:10;" d="M 504.527214 97.54737 C 498.996719 92.754523 493.257526 88.2812 487.309635 83.914384 " transform="matrix(0.0374345,0,0,0.0366757,0,0.000502074)"/>
<path style="fill:none;stroke-width:2;stroke-linecap:round;stroke-linejoin:miter;stroke:rgb(0%,0%,0%);stroke-opacity:1;stroke-miterlimit:10;" d="M 487.518333 83.59486 L 498.579323 68.577274 " transform="matrix(0.0374345,0,0,0.0366757,0,0.000502074)"/>
<path style="fill:none;stroke-width:2;stroke-linecap:square;stroke-linejoin:miter;stroke:rgb(0%,0%,0%);stroke-opacity:1;stroke-miterlimit:10;" d="M 521.223047 112.88448 C 515.90125 107.559095 510.266406 102.446725 504.527214 97.54737 " transform="matrix(0.0374345,0,0,0.0366757,0,0.000502074)"/>
<path style="fill:none;stroke-width:2;stroke-linecap:round;stroke-linejoin:miter;stroke:rgb(0%,0%,0%);stroke-opacity:1;stroke-miterlimit:10;" d="M 521.536094 112.564957 L 534.579714 99.571017 " transform="matrix(0.0374345,0,0,0.0366757,0,0.000502074)"/>
<path style="fill:none;stroke-width:2;stroke-linecap:square;stroke-linejoin:miter;stroke:rgb(0%,0%,0%);stroke-opacity:1;stroke-miterlimit:10;" d="M 534.266667 157.724225 C 526.231797 146.647423 517.257786 136.209668 507.553333 126.517466 " transform="matrix(0.0374345,0,0,0.0366757,0,0.000502074)"/>
<path style="fill:none;stroke-width:2;stroke-linecap:round;stroke-linejoin:miter;stroke:rgb(0%,0%,0%);stroke-opacity:1;stroke-miterlimit:10;" d="M 534.579714 157.511209 L 565.571354 135.570622 " transform="matrix(0.0374345,0,0,0.0366757,0,0.000502074)"/>
<path style="fill:none;stroke-width:2;stroke-linecap:square;stroke-linejoin:miter;stroke:rgb(0%,0%,0%);stroke-opacity:1;stroke-miterlimit:10;" d="M 507.762031 343.580173 C 510.162057 328.669094 510.788151 313.545 509.535964 298.527413 " transform="matrix(0.0374345,0,0,0.0366757,0,0.000502074)"/>
<path style="fill:none;stroke-width:2;stroke-linecap:square;stroke-linejoin:miter;stroke:rgb(0%,0%,0%);stroke-opacity:1;stroke-miterlimit:10;" d="M 508.179427 343.686681 L 526.544844 346.668897 " transform="matrix(0.0374345,0,0,0.0366757,0,0.000502074)"/>
<path style="fill:none;stroke-width:2;stroke-linecap:square;stroke-linejoin:miter;stroke:rgb(0%,0%,0%);stroke-opacity:1;stroke-miterlimit:10;" d="M 526.544844 346.562389 C 529.153568 330.373218 529.779661 313.864523 528.527474 297.568844 " transform="matrix(0.0374345,0,0,0.0366757,0,0.000502074)"/>
<path style="fill:none;stroke-width:2;stroke-linecap:square;stroke-linejoin:miter;stroke:rgb(0%,0%,0%);stroke-opacity:1;stroke-miterlimit:10;" d="M 528.527474 297.568844 L 547.518984 295.545198 " transform="matrix(0.0374345,0,0,0.0366757,0,0.000502074)"/>
<path style="fill:none;stroke-width:2;stroke-linecap:square;stroke-linejoin:miter;stroke:rgb(0%,0%,0%);stroke-opacity:1;stroke-miterlimit:10;" d="M 547.518984 295.545198 C 545.223307 265.72304 536.97974 236.752943 523.414375 210.126016 " transform="matrix(0.0374345,0,0,0.0366757,0,0.000502074)"/>
<path style="fill:none;stroke-width:2;stroke-linecap:round;stroke-linejoin:miter;stroke:rgb(0%,0%,0%);stroke-opacity:1;stroke-miterlimit:10;" d="M 524.249167 209.699986 L 592.180339 174.765458 " transform="matrix(0.0374345,0,0,0.0366757,0,0.000502074)"/>
<path style="fill:none;stroke-width:2;stroke-linecap:square;stroke-linejoin:miter;stroke:rgb(0%,0%,0%);stroke-opacity:1;stroke-miterlimit:10;" d="M 548.249427 313.545 C 548.249427 307.580568 548.040729 301.509629 547.518984 295.545198 " transform="matrix(0.0374345,0,0,0.0366757,0,0.000502074)"/>
<path style="fill:none;stroke-width:2;stroke-linecap:square;stroke-linejoin:miter;stroke:rgb(0%,0%,0%);stroke-opacity:1;stroke-miterlimit:10;" d="M 548.249427 313.545 L 566.301797 313.545 " transform="matrix(0.0374345,0,0,0.0366757,0,0.000502074)"/>
<path style="fill:none;stroke-width:2;stroke-linecap:square;stroke-linejoin:miter;stroke:rgb(0%,0%,0%);stroke-opacity:1;stroke-miterlimit:10;" d="M 566.510495 313.545 C 566.510495 294.373613 564.319167 275.202225 559.832161 256.456869 " transform="matrix(0.0374345,0,0,0.0366757,0,0.000502074)"/>
<path style="fill:none;stroke-width:2;stroke-linecap:square;stroke-linejoin:miter;stroke:rgb(0%,0%,0%);stroke-opacity:1;stroke-miterlimit:10;" d="M 560.249557 256.456869 L 596.562995 247.510222 " transform="matrix(0.0374345,0,0,0.0366757,0,0.000502074)"/>
<path style="fill:none;stroke-width:2;stroke-linecap:square;stroke-linejoin:miter;stroke:rgb(0%,0%,0%);stroke-opacity:1;stroke-miterlimit:10;" d="M 596.562995 247.510222 C 594.789062 240.16119 592.702083 232.812158 590.406406 225.569634 " transform="matrix(0.0374345,0,0,0.0366757,0,0.000502074)"/>
<path style="fill:none;stroke-width:2;stroke-linecap:round;stroke-linejoin:miter;stroke:rgb(0%,0%,0%);stroke-opacity:1;stroke-miterlimit:10;" d="M 590.510755 225.569634 L 608.563125 219.498695 " transform="matrix(0.0374345,0,0,0.0366757,0,0.000502074)"/>
<path style="fill:none;stroke-width:2;stroke-linecap:square;stroke-linejoin:miter;stroke:rgb(0%,0%,0%);stroke-opacity:1;stroke-miterlimit:10;" d="M 600.945651 269.663825 C 599.797812 262.208285 598.336927 254.859253 596.562995 247.510222 " transform="matrix(0.0374345,0,0,0.0366757,0,0.000502074)"/>
<path style="fill:none;stroke-width:2;stroke-linecap:round;stroke-linejoin:miter;stroke:rgb(0%,0%,0%);stroke-opacity:1;stroke-miterlimit:10;" d="M 601.571745 269.557317 L 619.519766 266.575101 " transform="matrix(0.0374345,0,0,0.0366757,0,0.000502074)"/>
<path style="fill:none;stroke-width:2;stroke-linecap:square;stroke-linejoin:miter;stroke:rgb(0%,0%,0%);stroke-opacity:1;stroke-miterlimit:10;" d="M 563.484375 352.526821 C 565.467005 339.639388 566.510495 326.645448 566.510495 313.545 " transform="matrix(0.0374345,0,0,0.0366757,0,0.000502074)"/>
<path style="fill:none;stroke-width:2;stroke-linecap:square;stroke-linejoin:miter;stroke:rgb(0%,0%,0%);stroke-opacity:1;stroke-miterlimit:10;" d="M 563.588724 352.526821 L 582.580234 354.550467 " transform="matrix(0.0374345,0,0,0.0366757,0,0.000502074)"/>
<path style="fill:none;stroke-width:2;stroke-linecap:square;stroke-linejoin:miter;stroke:rgb(0%,0%,0%);stroke-opacity:1;stroke-miterlimit:10;" d="M 582.580234 354.550467 C 583.623724 347.946989 584.354167 341.237004 584.875911 334.527018 " transform="matrix(0.0374345,0,0,0.0366757,0,0.000502074)"/>
<path style="fill:none;stroke-width:2;stroke-linecap:square;stroke-linejoin:miter;stroke:rgb(0%,0%,0%);stroke-opacity:1;stroke-miterlimit:10;" d="M 584.98026 334.527018 L 603.554375 335.592095 " transform="matrix(0.0374345,0,0,0.0366757,0,0.000502074)"/>
<path style="fill:none;stroke-width:2;stroke-linecap:square;stroke-linejoin:miter;stroke:rgb(0%,0%,0%);stroke-opacity:1;stroke-miterlimit:10;" d="M 603.554375 335.592095 C 604.180469 328.243064 604.389167 320.894032 604.389167 313.545 " transform="matrix(0.0374345,0,0,0.0366757,0,0.000502074)"/>
<path style="fill:none;stroke-width:2;stroke-linecap:round;stroke-linejoin:miter;stroke:rgb(0%,0%,0%);stroke-opacity:1;stroke-miterlimit:10;" d="M 604.597865 313.545 L 623.589375 313.545 " transform="matrix(0.0374345,0,0,0.0366757,0,0.000502074)"/>
<path style="fill:none;stroke-width:2;stroke-linecap:square;stroke-linejoin:miter;stroke:rgb(0%,0%,0%);stroke-opacity:1;stroke-miterlimit:10;" d="M 601.05 357.426175 C 602.09349 350.183651 603.03263 342.834619 603.554375 335.592095 " transform="matrix(0.0374345,0,0,0.0366757,0,0.000502074)"/>
<path style="fill:none;stroke-width:2;stroke-linecap:round;stroke-linejoin:miter;stroke:rgb(0%,0%,0%);stroke-opacity:1;stroke-miterlimit:10;" d="M 601.571745 357.532683 L 619.519766 360.514899 " transform="matrix(0.0374345,0,0,0.0366757,0,0.000502074)"/>
<path style="fill:none;stroke-width:2;stroke-linecap:square;stroke-linejoin:miter;stroke:rgb(0%,0%,0%);stroke-opacity:1;stroke-miterlimit:10;" d="M 572.771432 395.555934 C 577.04974 382.242471 580.388906 368.502977 582.580234 354.550467 " transform="matrix(0.0374345,0,0,0.0366757,0,0.000502074)"/>
<path style="fill:none;stroke-width:2;stroke-linecap:round;stroke-linejoin:miter;stroke:rgb(0%,0%,0%);stroke-opacity:1;stroke-miterlimit:10;" d="M 572.98013 395.662442 L 608.980521 407.591305 " transform="matrix(0.0374345,0,0,0.0366757,0,0.000502074)"/>
<path style="fill:none;stroke-width:2;stroke-linecap:square;stroke-linejoin:miter;stroke:rgb(0%,0%,0%);stroke-opacity:1;stroke-miterlimit:10;" d="M 489.709661 435.70934 C 508.805521 409.188921 521.431745 378.727717 526.544844 346.562389 " transform="matrix(0.0374345,0,0,0.0366757,0,0.000502074)"/>
<path style="fill:none;stroke-width:2;stroke-linecap:square;stroke-linejoin:miter;stroke:rgb(0%,0%,0%);stroke-opacity:1;stroke-miterlimit:10;" d="M 489.605312 435.922355 L 534.371016 469.365775 " transform="matrix(0.0374345,0,0,0.0366757,0,0.000502074)"/>
<path style="fill:none;stroke-width:2;stroke-linecap:square;stroke-linejoin:miter;stroke:rgb(0%,0%,0%);stroke-opacity:1;stroke-miterlimit:10;" d="M 534.579714 469.578791 C 542.823281 458.182466 550.232057 446.147095 556.597344 433.579186 " transform="matrix(0.0374345,0,0,0.0366757,0,0.000502074)"/>
<path style="fill:none;stroke-width:2;stroke-linecap:round;stroke-linejoin:miter;stroke:rgb(0%,0%,0%);stroke-opacity:1;stroke-miterlimit:10;" d="M 556.701693 433.685694 L 590.719453 451.685496 " transform="matrix(0.0374345,0,0,0.0366757,0,0.000502074)"/>
<path style="fill:none;stroke-width:2;stroke-linecap:square;stroke-linejoin:miter;stroke:rgb(0%,0%,0%);stroke-opacity:1;stroke-miterlimit:10;" d="M 522.162187 485.235424 C 526.544844 480.123054 530.614453 474.904176 534.579714 469.578791 " transform="matrix(0.0374345,0,0,0.0366757,0,0.000502074)"/>
<path style="fill:none;stroke-width:2;stroke-linecap:square;stroke-linejoin:miter;stroke:rgb(0%,0%,0%);stroke-opacity:1;stroke-miterlimit:10;" d="M 522.579583 485.554947 L 536.562344 497.590318 " transform="matrix(0.0374345,0,0,0.0366757,0,0.000502074)"/>
<path style="fill:none;stroke-width:2;stroke-linecap:square;stroke-linejoin:miter;stroke:rgb(0%,0%,0%);stroke-opacity:1;stroke-miterlimit:10;" d="M 536.562344 497.590318 C 541.362396 491.945409 545.849401 486.193993 550.127708 480.229562 " transform="matrix(0.0374345,0,0,0.0366757,0,0.000502074)"/>
<path style="fill:none;stroke-width:2;stroke-linecap:round;stroke-linejoin:miter;stroke:rgb(0%,0%,0%);stroke-opacity:1;stroke-miterlimit:10;" d="M 550.545104 480.549085 L 565.571354 491.519378 " transform="matrix(0.0374345,0,0,0.0366757,0,0.000502074)"/>
<path style="fill:none;stroke-width:2;stroke-linecap:square;stroke-linejoin:miter;stroke:rgb(0%,0%,0%);stroke-opacity:1;stroke-miterlimit:10;" d="M 521.223047 514.20552 C 526.544844 508.880135 531.657943 503.341734 536.562344 497.590318 " transform="matrix(0.0374345,0,0,0.0366757,0,0.000502074)"/>
<path style="fill:none;stroke-width:2;stroke-linecap:round;stroke-linejoin:miter;stroke:rgb(0%,0%,0%);stroke-opacity:1;stroke-miterlimit:10;" d="M 521.536094 514.525043 L 534.579714 527.518983 " transform="matrix(0.0374345,0,0,0.0366757,0,0.000502074)"/>
<path style="fill:none;stroke-width:2;stroke-linecap:square;stroke-linejoin:miter;stroke:rgb(0%,0%,0%);stroke-opacity:1;stroke-miterlimit:10;" d="M 409.778359 458.821512 C 456.317995 430.277447 486.370495 381.070886 490.544453 326.53894 " transform="matrix(0.0374345,0,0,0.0366757,0,0.000502074)"/>
<path style="fill:none;stroke-width:2;stroke-linecap:square;stroke-linejoin:miter;stroke:rgb(0%,0%,0%);stroke-opacity:1;stroke-miterlimit:10;" d="M 409.778359 459.034528 L 468.526823 555.210987 " transform="matrix(0.0374345,0,0,0.0366757,0,0.000502074)"/>
<path style="fill:none;stroke-width:2;stroke-linecap:square;stroke-linejoin:miter;stroke:rgb(0%,0%,0%);stroke-opacity:1;stroke-miterlimit:10;" d="M 468.526823 555.53051 C 474.996458 551.696233 481.153047 547.542432 487.205286 543.069109 " transform="matrix(0.0374345,0,0,0.0366757,0,0.000502074)"/>
<path style="fill:none;stroke-width:2;stroke-linecap:round;stroke-linejoin:miter;stroke:rgb(0%,0%,0%);stroke-opacity:1;stroke-miterlimit:10;" d="M 487.518333 543.601647 L 498.579323 558.512726 " transform="matrix(0.0374345,0,0,0.0366757,0,0.000502074)"/>
<path style="fill:none;stroke-width:2;stroke-linecap:square;stroke-linejoin:miter;stroke:rgb(0%,0%,0%);stroke-opacity:1;stroke-miterlimit:10;" d="M 449.430964 566.287789 C 455.900599 562.98605 462.370234 559.364788 468.526823 555.53051 " transform="matrix(0.0374345,0,0,0.0366757,0,0.000502074)"/>
<path style="fill:none;stroke-width:2;stroke-linecap:round;stroke-linejoin:miter;stroke:rgb(0%,0%,0%);stroke-opacity:1;stroke-miterlimit:10;" d="M 449.535312 566.500804 L 458.509323 583.542037 " transform="matrix(0.0374345,0,0,0.0366757,0,0.000502074)"/>
<path style="fill:none;stroke-width:2;stroke-linecap:square;stroke-linejoin:miter;stroke:rgb(0%,0%,0%);stroke-opacity:1;stroke-miterlimit:10;" d="M 361.569141 439.543617 C 431.169896 416.857476 469.257266 342.089065 446.509193 272.539533 " transform="matrix(0.0374345,0,0,0.0366757,0,0.000502074)"/>
<path style="fill:none;stroke-width:2;stroke-linecap:round;stroke-linejoin:miter;stroke:rgb(0%,0%,0%);stroke-opacity:1;stroke-miterlimit:10;" d="M 361.569141 439.543617 L 414.578411 601.54184 " transform="matrix(0.0374345,0,0,0.0366757,0,0.000502074)"/>
<path style="fill:none;stroke-width:2;stroke-linecap:square;stroke-linejoin:miter;stroke:rgb(0%,0%,0%);stroke-opacity:1;stroke-miterlimit:10;" d="M 329.53401 426.656185 C 361.151745 424.1 390.160755 408.549875 409.778359 383.627071 C 429.291615 358.704268 437.535182 326.858463 432.526432 295.545198 " transform="matrix(0.0374345,0,0,0.0366757,0,0.000502074)"/>
<path style="fill:none;stroke-width:2;stroke-linecap:square;stroke-linejoin:miter;stroke:rgb(0%,0%,0%);stroke-opacity:1;stroke-miterlimit:10;" d="M 329.53401 426.656185 L 342.57763 596.535978 " transform="matrix(0.0374345,0,0,0.0366757,0,0.000502074)"/>
<path style="fill:none;stroke-width:2;stroke-linecap:square;stroke-linejoin:miter;stroke:rgb(0%,0%,0%);stroke-opacity:1;stroke-miterlimit:10;" d="M 342.57763 596.535978 C 349.882057 596.003439 357.186484 595.151377 364.490911 593.979793 " transform="matrix(0.0374345,0,0,0.0366757,0,0.000502074)"/>
<path style="fill:none;stroke-width:2;stroke-linecap:round;stroke-linejoin:miter;stroke:rgb(0%,0%,0%);stroke-opacity:1;stroke-miterlimit:10;" d="M 364.59526 594.512331 L 367.517031 612.512134 " transform="matrix(0.0374345,0,0,0.0366757,0,0.000502074)"/>
<path style="fill:none;stroke-width:2;stroke-linecap:square;stroke-linejoin:miter;stroke:rgb(0%,0%,0%);stroke-opacity:1;stroke-miterlimit:10;" d="M 342.57763 596.535978 C 335.273203 597.068516 327.864427 597.388039 320.56 597.388039 " transform="matrix(0.0374345,0,0,0.0366757,0,0.000502074)"/>
<path style="fill:none;stroke-width:2;stroke-linecap:round;stroke-linejoin:miter;stroke:rgb(0%,0%,0%);stroke-opacity:1;stroke-miterlimit:10;" d="M 320.56 597.601055 L 320.56 616.559427 " transform="matrix(0.0374345,0,0,0.0366757,0,0.000502074)"/>
<path style="fill:none;stroke-width:2;stroke-linecap:square;stroke-linejoin:miter;stroke:rgb(0%,0%,0%);stroke-opacity:1;stroke-miterlimit:10;" d="M 297.49888 385.863733 C 322.54263 393.958319 350.090755 388.31341 370.125755 371.16567 C 390.056406 353.911421 399.760859 327.604017 395.586901 301.509629 " transform="matrix(0.0374345,0,0,0.0366757,0,0.000502074)"/>
<path style="fill:none;stroke-width:2;stroke-linecap:square;stroke-linejoin:miter;stroke:rgb(0%,0%,0%);stroke-opacity:1;stroke-miterlimit:10;" d="M 297.394531 386.076748 L 238.854766 565.116204 " transform="matrix(0.0374345,0,0,0.0366757,0,0.000502074)"/>
<path style="fill:none;stroke-width:2;stroke-linecap:square;stroke-linejoin:miter;stroke:rgb(0%,0%,0%);stroke-opacity:1;stroke-miterlimit:10;" d="M 238.541719 565.542235 C 252.002734 569.909051 265.672448 573.21079 279.550859 575.340944 " transform="matrix(0.0374345,0,0,0.0366757,0,0.000502074)"/>
<path style="fill:none;stroke-width:2;stroke-linecap:round;stroke-linejoin:miter;stroke:rgb(0%,0%,0%);stroke-opacity:1;stroke-miterlimit:10;" d="M 279.550859 575.553959 L 273.602969 612.512134 " transform="matrix(0.0374345,0,0,0.0366757,0,0.000502074)"/>
<path style="fill:none;stroke-width:2;stroke-linecap:square;stroke-linejoin:miter;stroke:rgb(0%,0%,0%);stroke-opacity:1;stroke-miterlimit:10;" d="M 219.550208 558.512726 C 225.811146 561.175419 232.176432 563.412081 238.541719 565.542235 " transform="matrix(0.0374345,0,0,0.0366757,0,0.000502074)"/>
<path style="fill:none;stroke-width:2;stroke-linecap:square;stroke-linejoin:miter;stroke:rgb(0%,0%,0%);stroke-opacity:1;stroke-miterlimit:10;" d="M 219.550208 558.512726 L 211.515339 575.553959 " transform="matrix(0.0374345,0,0,0.0366757,0,0.000502074)"/>
<path style="fill:none;stroke-width:2;stroke-linecap:square;stroke-linejoin:miter;stroke:rgb(0%,0%,0%);stroke-opacity:1;stroke-miterlimit:10;" d="M 211.515339 575.553959 C 218.506719 578.429667 225.498099 580.985852 232.593828 583.329022 " transform="matrix(0.0374345,0,0,0.0366757,0,0.000502074)"/>
<path style="fill:none;stroke-width:2;stroke-linecap:round;stroke-linejoin:miter;stroke:rgb(0%,0%,0%);stroke-opacity:1;stroke-miterlimit:10;" d="M 232.593828 583.542037 L 226.541589 601.54184 " transform="matrix(0.0374345,0,0,0.0366757,0,0.000502074)"/>
<path style="fill:none;stroke-width:2;stroke-linecap:square;stroke-linejoin:miter;stroke:rgb(0%,0%,0%);stroke-opacity:1;stroke-miterlimit:10;" d="M 191.689036 566.394297 C 198.158672 569.696035 204.837005 572.784759 211.515339 575.553959 " transform="matrix(0.0374345,0,0,0.0366757,0,0.000502074)"/>
<path style="fill:none;stroke-width:2;stroke-linecap:round;stroke-linejoin:miter;stroke:rgb(0%,0%,0%);stroke-opacity:1;stroke-miterlimit:10;" d="M 191.584687 566.500804 L 182.610677 583.542037 " transform="matrix(0.0374345,0,0,0.0366757,0,0.000502074)"/>
<path style="fill:none;stroke-width:2;stroke-linecap:square;stroke-linejoin:miter;stroke:rgb(0%,0%,0%);stroke-opacity:1;stroke-miterlimit:10;" d="M 277.568229 350.503174 C 291.968385 367.224884 314.716458 374.147885 336.003646 368.076946 C 357.186484 362.112514 373.047526 344.325727 376.595391 322.598155 " transform="matrix(0.0374345,0,0,0.0366757,0,0.000502074)"/>
<path style="fill:none;stroke-width:2;stroke-linecap:square;stroke-linejoin:miter;stroke:rgb(0%,0%,0%);stroke-opacity:1;stroke-miterlimit:10;" d="M 277.568229 350.503174 L 133.566667 473.519576 " transform="matrix(0.0374345,0,0,0.0366757,0,0.000502074)"/>
<path style="fill:none;stroke-width:2;stroke-linecap:square;stroke-linejoin:miter;stroke:rgb(0%,0%,0%);stroke-opacity:1;stroke-miterlimit:10;" d="M 133.566667 473.519576 C 145.984193 488.111132 160.175651 501.21158 175.619297 512.501397 " transform="matrix(0.0374345,0,0,0.0366757,0,0.000502074)"/>
<path style="fill:none;stroke-width:2;stroke-linecap:round;stroke-linejoin:miter;stroke:rgb(0%,0%,0%);stroke-opacity:1;stroke-miterlimit:10;" d="M 175.514948 512.501397 L 142.540677 558.512726 " transform="matrix(0.0374345,0,0,0.0366757,0,0.000502074)"/>
<path style="fill:none;stroke-width:2;stroke-linecap:square;stroke-linejoin:miter;stroke:rgb(0%,0%,0%);stroke-opacity:1;stroke-miterlimit:10;" d="M 121.670885 458.501989 C 125.427448 463.614359 129.392708 468.726729 133.566667 473.519576 " transform="matrix(0.0374345,0,0,0.0366757,0,0.000502074)"/>
<path style="fill:none;stroke-width:2;stroke-linecap:square;stroke-linejoin:miter;stroke:rgb(0%,0%,0%);stroke-opacity:1;stroke-miterlimit:10;" d="M 121.566536 458.501989 L 106.540286 469.578791 " transform="matrix(0.0374345,0,0,0.0366757,0,0.000502074)"/>
<path style="fill:none;stroke-width:2;stroke-linecap:square;stroke-linejoin:miter;stroke:rgb(0%,0%,0%);stroke-opacity:1;stroke-miterlimit:10;" d="M 106.540286 469.578791 C 114.679505 480.655592 123.549167 491.093348 133.25362 500.785549 " transform="matrix(0.0374345,0,0,0.0366757,0,0.000502074)"/>
<path style="fill:none;stroke-width:2;stroke-linecap:round;stroke-linejoin:miter;stroke:rgb(0%,0%,0%);stroke-opacity:1;stroke-miterlimit:10;" d="M 133.25362 500.785549 L 106.331589 527.838507 " transform="matrix(0.0374345,0,0,0.0366757,0,0.000502074)"/>
<path style="fill:none;stroke-width:2;stroke-linecap:square;stroke-linejoin:miter;stroke:rgb(0%,0%,0%);stroke-opacity:1;stroke-miterlimit:10;" d="M 94.957552 452.324542 C 98.609766 458.182466 102.470677 463.933882 106.540286 469.578791 " transform="matrix(0.0374345,0,0,0.0366757,0,0.000502074)"/>
<path style="fill:none;stroke-width:2;stroke-linecap:square;stroke-linejoin:miter;stroke:rgb(0%,0%,0%);stroke-opacity:1;stroke-miterlimit:10;" d="M 94.540156 452.537558 L 78.574766 461.590713 " transform="matrix(0.0374345,0,0,0.0366757,0,0.000502074)"/>
<path style="fill:none;stroke-width:2;stroke-linecap:square;stroke-linejoin:miter;stroke:rgb(0%,0%,0%);stroke-opacity:1;stroke-miterlimit:10;" d="M 78.574766 461.590713 C 82.435677 467.981175 86.609635 474.158622 90.992292 480.229562 " transform="matrix(0.0374345,0,0,0.0366757,0,0.000502074)"/>
<path style="fill:none;stroke-width:2;stroke-linecap:round;stroke-linejoin:miter;stroke:rgb(0%,0%,0%);stroke-opacity:1;stroke-miterlimit:10;" d="M 90.574896 480.549085 L 75.548646 491.519378 " transform="matrix(0.0374345,0,0,0.0366757,0,0.000502074)"/>
<path style="fill:none;stroke-width:2;stroke-linecap:square;stroke-linejoin:miter;stroke:rgb(0%,0%,0%);stroke-opacity:1;stroke-miterlimit:10;" d="M 67.826823 442.419326 C 71.16599 448.916296 74.713854 455.306758 78.574766 461.590713 " transform="matrix(0.0374345,0,0,0.0366757,0,0.000502074)"/>
<path style="fill:none;stroke-width:2;stroke-linecap:round;stroke-linejoin:miter;stroke:rgb(0%,0%,0%);stroke-opacity:1;stroke-miterlimit:10;" d="M 67.513776 442.525833 L 50.609245 451.578988 " transform="matrix(0.0374345,0,0,0.0366757,0,0.000502074)"/>
<path style="fill:none;stroke-width:2;stroke-linecap:square;stroke-linejoin:miter;stroke:rgb(0%,0%,0%);stroke-opacity:1;stroke-miterlimit:10;" d="M 284.45526 325.580371 C 289.777057 341.663035 305.220703 352.313805 322.125234 351.568251 C 339.134115 350.929205 353.534271 339.000342 357.60388 322.598155 " transform="matrix(0.0374345,0,0,0.0366757,0,0.000502074)"/>
<path style="fill:none;stroke-width:2;stroke-linecap:round;stroke-linejoin:miter;stroke:rgb(0%,0%,0%);stroke-opacity:1;stroke-miterlimit:10;" d="M 284.037865 325.686879 L 32.556875 407.37829 " transform="matrix(0.0374345,0,0,0.0366757,0,0.000502074)"/>
<path style="fill:none;stroke-width:2;stroke-linecap:square;stroke-linejoin:miter;stroke:rgb(0%,0%,0%);stroke-opacity:1;stroke-miterlimit:10;" d="M 320.56 313.545 L 320.56 313.545 " transform="matrix(0.0374345,0,0,0.0366757,0,0.000502074)"/>
<path style="fill:none;stroke-width:2;stroke-linecap:round;stroke-linejoin:miter;stroke:rgb(0%,0%,0%);stroke-opacity:1;stroke-miterlimit:10;" d="M 320.56 313.545 L 21.600234 360.514899 " transform="matrix(0.0374345,0,0,0.0366757,0,0.000502074)"/>
</g>
</svg>
